<?xml version="1.0" standalone="no"?>
<!DOCTYPE svg PUBLIC "-//W3C//DTD SVG 20010904//EN"
 "http://www.w3.org/TR/2001/REC-SVG-20010904/DTD/svg10.dtd">
<svg version="1.0" xmlns="http://www.w3.org/2000/svg"
 width="800.000000pt" height="800.000000pt" viewBox="0 0 800.000000 800.000000"
 preserveAspectRatio="xMidYMid meet">
<metadata>
Created by potrace 1.14, written by Peter Selinger 2001-2017
</metadata>
<g transform="translate(0.000000,800.000000) scale(0.100000,-0.100000)"
fill="#000000" stroke="none">
<path d="M3578 6855 c-2 -2 -57 -6 -123 -9 -66 -3 -131 -8 -145 -10 -14 -3
-56 -8 -95 -11 -74 -7 -88 -8 -181 -19 -94 -12 -123 -16 -224 -32 -52 -8 -108
-17 -125 -20 -16 -2 -66 -11 -110 -19 -44 -8 -98 -17 -120 -21 -42 -7 -44 -7
-85 -17 -14 -3 -80 -18 -148 -33 l-123 -28 6 -60 c4 -33 8 -63 10 -66 2 -3 6
-30 10 -60 4 -30 9 -59 12 -63 4 -7 65 -3 128 9 11 2 36 6 55 9 19 2 51 7 70
9 19 3 73 10 120 16 47 6 102 13 123 16 l37 5 0 -2004 0 -2004 -25 -27 c-49
-53 -198 -112 -439 -173 l-69 -18 -1 -98 -1 -97 165 -1 c91 0 194 -2 230 -4
62 -2 309 -12 511 -20 53 -2 183 -6 290 -10 107 -3 268 -8 359 -11 198 -6 599
-6 655 0 22 3 69 8 105 11 159 15 381 65 520 117 497 186 814 523 904 960 65
318 20 651 -127 928 -119 225 -318 432 -539 561 -70 41 -248 122 -248 113 0
-3 -10 0 -21 7 -12 6 -63 21 -113 34 -66 16 -86 24 -71 29 62 23 199 96 260
139 252 180 410 443 460 767 23 144 9 347 -30 465 -114 338 -486 589 -1025
690 -14 3 -36 7 -50 10 -14 3 -45 7 -70 10 -60 7 -114 14 -175 21 -50 6 -541
14 -547 9z m282 -349 c80 -9 152 -18 175 -22 20 -4 126 -27 135 -29 3 -1 19
-5 35 -10 226 -61 419 -222 506 -423 135 -309 72 -727 -142 -941 -178 -179
-413 -273 -769 -307 -19 -1 -122 -5 -227 -8 l-193 -5 0 874 0 874 48 3 c74 5
371 1 432 -6z m315 -2070 c33 -4 105 -19 159 -32 391 -96 677 -394 786 -819
100 -385 30 -721 -197 -949 -222 -223 -514 -317 -963 -311 -266 4 -412 22
-524 65 -59 22 -55 -37 -56 1026 l0 981 48 7 c26 4 56 9 67 12 39 7 91 13 190
20 55 3 101 8 103 9 6 5 334 -3 387 -9z"/>
</g>
</svg>
